<svg id="visual" viewBox="0 0 900 600" width="900" height="600" xmlns="http://www.w3.org/2000/svg" xmlns:xlink="http://www.w3.org/1999/xlink" version="1.1"><rect x="0" y="0" width="900" height="600" fill="#001220"></rect><defs><linearGradient id="grad1_0" x1="33.3%" y1="0%" x2="100%" y2="100%"><stop offset="20%" stop-color="#001220" stop-opacity="1"></stop><stop offset="80%" stop-color="#001220" stop-opacity="1"></stop></linearGradient></defs><defs><linearGradient id="grad2_0" x1="0%" y1="0%" x2="66.7%" y2="100%"><stop offset="20%" stop-color="#001220" stop-opacity="1"></stop><stop offset="80%" stop-color="#001220" stop-opacity="1"></stop></linearGradient></defs><g transform="translate(900, 0)"><path d="M0 486.7C-62.7 475.2 -125.3 463.6 -182.2 439.8C-239 415.9 -290 379.7 -336.6 336.6C-383.2 293.5 -425.4 243.5 -449.7 186.3C-474 129 -480.4 64.5 -486.7 0L0 0Z" fill="#660d7e"></path></g><g transform="translate(0, 600)"><path d="M0 -486.7C70.2 -486.4 140.5 -486.1 186.3 -449.7C232 -413.3 253.3 -340.9 292.7 -292.7C332.1 -244.6 389.6 -220.8 425 -176C460.3 -131.3 473.5 -65.6 486.7 0L0 0Z" fill="#660d7e"></path></g></svg>