<svg id="visual" viewBox="0 0 900 600" width="900" height="600" xmlns="http://www.w3.org/2000/svg" xmlns:xlink="http://www.w3.org/1999/xlink" version="1.1"><rect x="0" y="0" width="900" height="600" fill="#4e1e6e"></rect><path d="M0 265L129 265L129 343L257 343L257 261L386 261L386 324L514 324L514 316L643 316L643 301L771 301L771 325L900 325L900 272L900 601L900 601L771 601L771 601L643 601L643 601L514 601L514 601L386 601L386 601L257 601L257 601L129 601L129 601L0 601Z" fill="#64d594"></path><path d="M0 400L129 400L129 456L257 456L257 405L386 405L386 354L514 354L514 433L643 433L643 351L771 351L771 440L900 440L900 368L900 601L900 601L771 601L771 601L643 601L643 601L514 601L514 601L386 601L386 601L257 601L257 601L129 601L129 601L0 601Z" fill="#3bb484"></path><path d="M0 503L129 503L129 540L257 540L257 482L386 482L386 483L514 483L514 481L643 481L643 482L771 482L771 522L900 522L900 487L900 601L900 601L771 601L771 601L643 601L643 601L514 601L514 601L386 601L386 601L257 601L257 601L129 601L129 601L0 601Z" fill="#009473"></path></svg>