<svg version="1.1" viewBox="0.0 0.0 4096.0 4096.0" fill="none" stroke="none" stroke-linecap="square" stroke-miterlimit="10" xmlns:xlink="http://www.w3.org/1999/xlink" xmlns="http://www.w3.org/2000/svg"><clipPath id="p.0"><path d="m0 0l4096.0 0l0 4096.0l-4096.0 0l0 -4096.0z" clip-rule="nonzero"/></clipPath><g clip-path="url(#p.0)"><path fill="#000000" fill-opacity="0.0" d="m0 0l4096.0 0l0 4096.0l-4096.0 0z" fill-rule="evenodd"/><path fill="#6aa84f" d="m-0.0131233595 192.39548l0 0c0 -106.34406 86.20889 -192.55296 192.55296 -192.55296l3710.894 0c51.06836 0 100.04492 20.286772 136.15552 56.397457c36.11084 36.110687 56.39746 85.08728 56.39746 136.1555l0 3711.209c0 106.343994 -86.20874 192.55322 -192.55298 192.55322l-3710.894 0c-106.34407 0 -192.55296 -86.20923 -192.55296 -192.55322z" fill-rule="evenodd"/><path fill="#6aa84f" d="m2808.8733 1863.7976c-5.0717773 6.142456 -11.002686 11.395386 -16.93335 16.669312c-33.048584 30.71228 -71.16919 44.755127 -114.38208 43.88672l-137.26636 -0.88952637l137.26636 0.88952637c43.21289 0.8684082 81.333496 -13.174438 114.38208 -43.88672c5.930664 -5.273926 11.861572 -10.526855 16.93335 -16.669312l-234.69482 386.10547c-5.930664 9.658447 -15.256348 19.317139 -26.25879 28.975586c-23.723145 19.295654 -50.002686 28.064453 -77.958984 28.064453l-197.4126 -2.6264648l-2.5563965 158.8352l-194.87695 -350.14038l195.73584 -374.71033l-4.2539062 182.5365l273.69482 2.6264648l-214.3667 -385.23718l343.146 -205.34827l174.54858 315.04382c6.769287 14.911377 11.861572 30.71228 14.397461 46.513184c9.325684 50.897583 0 98.27905 -28.794922 140.40771c-4.2333984 8.768921 -11.022949 17.537842 -18.651123 27.19629c-0.83862305 0.8684082 -0.83862305 1.7579346 -1.6975098 1.7579346zm-1104.0223 -988.1073c37.281982 -35.11786 81.33325 -50.897583 131.33582 -47.40271l31.33081 5.273987l443.9895 5.2528687l37.281982 8.790039c27.976807 10.526855 49.143555 28.954224 62.702393 53.523987l100.823 177.26239l133.0332 -79.851685l-188.9458 352.76685l-410.94092 21.053833l153.36157 -90.37866l-138.10522 -243.96094l-209.29468 389.6427l-347.37927 -198.3374l170.2948 -317.67023c8.466675 -13.153259 19.489746 -25.438171 30.512817 -35.965027zm-156.75635 1033.7308l427.89465 0l0.8383789 410.69653l-332.9818 0c-19.489746 0.8684082 -40.67688 -2.6264648 -64.3999 -11.416504c-46.607666 -17.537598 -81.333374 -49.13965 -102.52051 -95.65259c-5.092285 -8.769043 -9.325562 -19.295898 -12.720459 -29.822754c-2.5358887 -8.790039 -5.0717773 -16.66919 -6.769287 -26.327637c-8.466675 -44.755127 -1.6973877 -85.994385 20.328247 -122.87012l70.33069 -124.60693l-70.33069 124.60693c-22.025635 36.875732 -28.794922 78.11499 -20.328247 122.87012c1.6975098 9.658447 4.2333984 17.537598 6.769287 26.327637l-208.43579 -407.18042c-5.0717773 -9.658447 -8.466675 -22.811768 -11.002563 -37.744263c-4.253784 -29.822632 0.838501 -57.908447 15.235962 -82.47815l101.68201 -176.39404l-133.03333 -81.60974l390.61255 0l216.06396 361.5569l-150.82544 -94.7843zm319.42297 -1075.8596l24.58191 4.3844604c41.51538 14.042908 72.8667 40.370667 94.05383 78.98334l74.563965 121.09088l-74.563965 -121.09088c-21.187134 -38.61267 -52.538452 -64.94043 -94.05383 -78.98334z" fill-rule="evenodd"/><path stroke="#ffffff" stroke-width="24.0" stroke-linejoin="round" stroke-linecap="butt" d="m2808.8733 1863.7976c-5.0717773 6.142456 -11.002686 11.395386 -16.93335 16.669312c-33.048584 30.71228 -71.16919 44.755127 -114.38208 43.88672l-137.26636 -0.88952637l137.26636 0.88952637c43.21289 0.8684082 81.333496 -13.174438 114.38208 -43.88672c5.930664 -5.273926 11.861572 -10.526855 16.93335 -16.669312l-234.69482 386.10547c-5.930664 9.658447 -15.256348 19.317139 -26.25879 28.975586c-23.723145 19.295654 -50.002686 28.064453 -77.958984 28.064453l-197.4126 -2.6264648l-2.5563965 158.8352l-194.87695 -350.14038l195.73584 -374.71033l-4.2539062 182.5365l273.69482 2.6264648l-214.3667 -385.23718l343.146 -205.34827l174.54858 315.04382c6.769287 14.911377 11.861572 30.71228 14.397461 46.513184c9.325684 50.897583 0 98.27905 -28.794922 140.40771c-4.2333984 8.768921 -11.022949 17.537842 -18.651123 27.19629c-0.83862305 0.8684082 -0.83862305 1.7579346 -1.6975098 1.7579346zm-1104.0223 -988.1073c37.281982 -35.11786 81.33325 -50.897583 131.33582 -47.40271l31.33081 5.273987l443.9895 5.2528687l37.281982 8.790039c27.976807 10.526855 49.143555 28.954224 62.702393 53.523987l100.823 177.26239l133.0332 -79.851685l-188.9458 352.76685l-410.94092 21.053833l153.36157 -90.37866l-138.10522 -243.96094l-209.29468 389.6427l-347.37927 -198.3374l170.2948 -317.67023c8.466675 -13.153259 19.489746 -25.438171 30.512817 -35.965027zm-156.75635 1033.7308l427.89465 0l0.8383789 410.69653l-332.9818 0c-19.489746 0.8684082 -40.67688 -2.6264648 -64.3999 -11.416504c-46.607666 -17.537598 -81.333374 -49.13965 -102.52051 -95.65259c-5.092285 -8.769043 -9.325562 -19.295898 -12.720459 -29.822754c-2.5358887 -8.790039 -5.0717773 -16.66919 -6.769287 -26.327637c-8.466675 -44.755127 -1.6973877 -85.994385 20.328247 -122.87012l70.33069 -124.60693l-70.33069 124.60693c-22.025635 36.875732 -28.794922 78.11499 -20.328247 122.87012c1.6975098 9.658447 4.2333984 17.537598 6.769287 26.327637l-208.43579 -407.18042c-5.0717773 -9.658447 -8.466675 -22.811768 -11.002563 -37.744263c-4.253784 -29.822632 0.838501 -57.908447 15.235962 -82.47815l101.68201 -176.39404l-133.03333 -81.60974l390.61255 0l216.06396 361.5569l-150.82544 -94.7843zm319.42297 -1075.8596l24.58191 4.3844604c41.51538 14.042908 72.8667 40.370667 94.05383 78.98334l74.563965 121.09088l-74.563965 -121.09088c-21.187134 -38.61267 -52.538452 -64.94043 -94.05383 -78.98334z" fill-rule="evenodd"/><path fill="#000000" fill-opacity="0.0" d="m2540.2915 1923.4641l-214.3667 -385.23718l343.146 -205.34827l174.54858 315.04382c6.769287 14.911377 11.861572 30.71228 14.397461 46.513184c9.325684 50.897583 0 98.27905 -28.794922 140.40771c-4.2333984 8.768921 -11.022949 17.537842 -18.651123 27.19629c-0.83862305 0.8684082 -0.83862305 1.7579346 -1.6975098 1.7579346l-234.69482 386.10547c-5.930664 9.658447 -15.256348 19.317139 -26.25879 28.975586c-23.723145 19.295654 -50.002686 28.064453 -77.958984 28.064453l-197.4126 -2.6264648l-2.5563965 158.8352l-194.87695 -350.14038l195.73584 -374.71033l-4.2539062 182.5365zm268.5818 -59.666504c-5.0717773 6.142456 -11.002686 11.395386 -16.93335 16.669312c-33.048584 30.71228 -71.16919 44.755127 -114.38208 43.88672l-137.26636 -0.88952637m-835.44055 -1047.7738c37.281982 -35.11786 81.33325 -50.897583 131.33582 -47.40271l31.33081 5.273987l443.9895 5.2528687l37.281982 8.790039c27.976807 10.526855 49.143555 28.954224 62.702393 53.523987l100.823 177.26239l133.0332 -79.851685l-188.9458 352.76685l-410.94092 21.053833l153.36157 -90.37866l-138.10522 -243.96094l-209.29468 389.6427l-347.37927 -198.3374l170.2948 -317.67023c8.466675 -13.153259 19.489746 -25.438171 30.512817 -35.965027zm-156.75635 1033.7308l136.40771 -244.82935l150.82544 94.7843l-216.06396 -361.5569l-390.61255 0l133.03333 81.60974l-101.68201 176.39404c-14.397461 24.569702 -19.489746 52.655518 -15.235962 82.47815c2.5358887 14.932495 5.930786 28.085815 11.002563 37.744263l208.43579 407.18042c-2.5358887 -8.790039 -5.0717773 -16.66919 -6.769287 -26.327637c-8.466675 -44.755127 -1.6973877 -85.994385 20.328247 -122.87012l70.33069 -124.60693l427.89465 0l0.8383789 410.69653l-332.9818 0c-19.489746 0.8684082 -40.67688 -2.6264648 -64.3999 -11.416504c-46.607666 -17.537598 -81.333374 -49.13965 -102.52051 -95.65259c-5.092285 -8.769043 -9.325562 -19.295898 -12.720459 -29.822754m403.31262 -1349.6643l24.58191 4.3844604c41.51538 14.042908 72.8667 40.370667 94.05383 78.98334l74.563965 121.09088" fill-rule="evenodd"/><path stroke="#ffffff" stroke-width="24.0" stroke-miterlimit="41.431057" stroke-linecap="butt" d="m2540.2915 1923.4641l-214.3667 -385.23718l343.146 -205.34827l174.54858 315.04382c6.769287 14.911377 11.861572 30.71228 14.397461 46.513184c9.325684 50.897583 0 98.27905 -28.794922 140.40771c-4.2333984 8.768921 -11.022949 17.537842 -18.651123 27.19629c-0.83862305 0.8684082 -0.83862305 1.7579346 -1.6975098 1.7579346l-234.69482 386.10547c-5.930664 9.658447 -15.256348 19.317139 -26.25879 28.975586c-23.723145 19.295654 -50.002686 28.064453 -77.958984 28.064453l-197.4126 -2.6264648l-2.5563965 158.8352l-194.87695 -350.14038l195.73584 -374.71033l-4.2539062 182.5365zm268.5818 -59.666504c-5.0717773 6.142456 -11.002686 11.395386 -16.93335 16.669312c-33.048584 30.71228 -71.16919 44.755127 -114.38208 43.88672l-137.26636 -0.88952637m-835.44055 -1047.7738c37.281982 -35.11786 81.33325 -50.897583 131.33582 -47.40271l31.33081 5.273987l443.9895 5.2528687l37.281982 8.790039c27.976807 10.526855 49.143555 28.954224 62.702393 53.523987l100.823 177.26239l133.0332 -79.851685l-188.9458 352.76685l-410.94092 21.053833l153.36157 -90.37866l-138.10522 -243.96094l-209.29468 389.6427l-347.37927 -198.3374l170.2948 -317.67023c8.466675 -13.153259 19.489746 -25.438171 30.512817 -35.965027zm-156.75635 1033.7308l136.40771 -244.82935l150.82544 94.7843l-216.06396 -361.5569l-390.61255 0l133.03333 81.60974l-101.68201 176.39404c-14.397461 24.569702 -19.489746 52.655518 -15.235962 82.47815c2.5358887 14.932495 5.930786 28.085815 11.002563 37.744263l208.43579 407.18042c-2.5358887 -8.790039 -5.0717773 -16.66919 -6.769287 -26.327637c-8.466675 -44.755127 -1.6973877 -85.994385 20.328247 -122.87012l70.33069 -124.60693l427.89465 0l0.8383789 410.69653l-332.9818 0c-19.489746 0.8684082 -40.67688 -2.6264648 -64.3999 -11.416504c-46.607666 -17.537598 -81.333374 -49.13965 -102.52051 -95.65259c-5.092285 -8.769043 -9.325562 -19.295898 -12.720459 -29.822754m403.31262 -1349.6643l24.58191 4.3844604c41.51538 14.042908 72.8667 40.370667 94.05383 78.98334l74.563965 121.09088" fill-rule="evenodd"/><path fill="#000000" fill-opacity="0.0" d="m752.0079 2755.084l2592.0 0l0 646.3938l-2592.0 0z" fill-rule="evenodd"/><path fill="#ffffff" d="m1571.2174 3278.806q-32.53125 0 -56.53125 -13.328125q-24.0 -13.328125 -37.34375 -37.328125q-13.328125 -24.0 -13.328125 -56.0l0 -186.67188q0 -32.53125 13.328125 -56.53125q13.34375 -24.0 37.34375 -37.0625q24.0 -13.0625 56.53125 -13.0625q33.0625 0 57.59375 13.859375q24.53125 13.859375 37.859375 38.9375q13.34375 25.0625 13.34375 59.203125l-26.671875 0q0 -41.078125 -22.140625 -64.53125q-22.125 -23.46875 -59.984375 -23.46875q-37.34375 0 -58.9375 22.140625q-21.59375 22.125 -21.59375 60.515625l0 186.67188q0 38.390625 21.59375 60.53125q21.59375 22.125 58.9375 22.125q38.390625 0 60.25 -23.71875q21.875 -23.734375 21.875 -64.28125l26.671875 0q0 34.140625 -13.34375 59.203125q-13.328125 25.0625 -37.859375 38.9375q-24.53125 13.859375 -57.59375 13.859375zm215.46558 -5.328125l0 -389.32812l114.65625 0q34.140625 0 59.203125 13.34375q25.0625 13.328125 38.921875 37.59375q13.875 24.265625 13.875 57.328125q0 32.53125 -13.875 57.0625q-13.859375 24.53125 -38.921875 37.875q-25.0625 13.328125 -59.203125 13.328125l-88.0 0l0 172.79688l-26.65625 0zm26.65625 -197.32812l88.0 0q38.9375 0 62.140625 -22.671875q23.203125 -22.671875 23.203125 -61.0625q0 -38.9375 -22.9375 -61.328125q-22.9375 -22.40625 -62.40625 -22.40625l-88.0 0l0 167.46875zm397.8717 202.65625q-32.53125 0 -56.53125 -13.328125q-24.0 -13.328125 -37.34375 -37.328125q-13.328125 -24.0 -13.328125 -56.0l0 -186.67188q0 -32.53125 13.328125 -56.53125q13.34375 -24.0 37.34375 -37.0625q24.0 -13.0625 56.53125 -13.0625q33.0625 0 57.59375 13.859375q24.53125 13.859375 37.859375 38.9375q13.34375 25.0625 13.34375 59.203125l-26.671875 0q0 -41.078125 -22.140625 -64.53125q-22.125 -23.46875 -59.984375 -23.46875q-37.34375 0 -58.9375 22.140625q-21.59375 22.125 -21.59375 60.515625l0 186.67188q0 38.390625 21.59375 60.53125q21.59375 22.125 58.9375 22.125q38.390625 0 60.25 -23.71875q21.875 -23.734375 21.875 -64.28125l26.671875 0q0 34.140625 -13.34375 59.203125q-13.328125 25.0625 -37.859375 38.9375q-24.53125 13.859375 -57.59375 13.859375zm220.7937 -5.328125l0 -24.53125l83.203125 0l0 -340.79688l-83.203125 0l0 -24.53125l192.0 0l0 24.53125l-82.140625 0l0 340.79688l82.140625 0l0 24.53125l-192.0 0z" fill-rule="nonzero"/></g></svg>