<svg version="1.1" viewBox="0.0 0.0 4096.0 4096.0" fill="none" stroke="none" stroke-linecap="square" stroke-miterlimit="10" xmlns:xlink="http://www.w3.org/1999/xlink" xmlns="http://www.w3.org/2000/svg"><clipPath id="p.0"><path d="m0 0l4096.0 0l0 4096.0l-4096.0 0l0 -4096.0z" clip-rule="nonzero"/></clipPath><g clip-path="url(#p.0)"><path fill="#000000" fill-opacity="0.0" d="m0 0l4096.0 0l0 4096.0l-4096.0 0z" fill-rule="evenodd"/><path fill="#f1c232" d="m9810.252 -1287.9187l2046.6777 2046.6772l-2046.6777 2046.6772l-2046.6768 -2046.6772z" fill-rule="evenodd"/><path fill="#f1c232" d="m-1447.0493 1439.4204l0 -1201.4487l1201.3229 1201.4487z" fill-rule="evenodd"/><path fill="#f1c232" d="m-3140.4429 237.95781l1692.9763 0l0 4096.0l-1692.9763 0z" fill-rule="evenodd"/><path stroke="#f1c232" stroke-width="1.0" stroke-linejoin="round" stroke-linecap="butt" d="m-3140.4429 237.95781l1692.9763 0l0 4096.0l-1692.9763 0z" fill-rule="evenodd"/><path fill="#f1c232" d="m-4341.337 1439.0942l4095.1497 0l0 1693.2283l-4095.1497 0z" fill-rule="evenodd"/><path stroke="#f1c232" stroke-width="1.0" stroke-linejoin="round" stroke-linecap="butt" d="m-4341.337 1439.0942l4095.1497 0l0 1693.2283l-4095.1497 0z" fill-rule="evenodd"/><path fill="#f1c232" d="m-3140.4358 1439.4204l0 -1201.4487l-1201.323 1201.4487z" fill-rule="evenodd"/><path fill="#f1c232" d="m-1447.0493 3132.461l0 1201.4487l1201.3229 -1201.4487z" fill-rule="evenodd"/><path fill="#f1c232" d="m-3140.4358 3132.461l0 1201.4487l-1201.323 -1201.4487z" fill-rule="evenodd"/><path fill="#000000" d="m9188.255 1532.4255l0 0c-427.292 -427.2915 -427.292 -1120.068 0 -1547.3596c427.29102 -427.29156 1120.0684 -427.29156 1547.3594 0l-386.83984 386.8399c-213.64551 -213.6458 -560.0342 -213.6458 -773.6797 0c-213.64551 213.64575 -213.64551 560.034 0 773.6798z" fill-rule="evenodd"/><path fill="#000000" d="m10735.614 1532.4255l0 0c-427.29102 427.29163 -1120.0684 427.29163 -1547.3594 0c-427.292 -427.2915 -427.292 -1120.068 0 -1547.3596l386.83984 386.8399c-213.64551 213.64575 -213.64551 560.034 0 773.6798c213.64551 213.64575 560.0342 213.64575 773.6797 0z" fill-rule="evenodd"/><path fill="#000000" fill-opacity="0.0" d="m4719.288 640.3659l1683.685 0l0 2165.0708l-1683.685 0z" fill-rule="evenodd"/><path fill="#000000" d="m5665.296 2475.327q-163.82812 0 -304.40625 -53.59375q-140.57812 -53.59375 -243.73438 -152.70312q-103.15625 -99.125 -160.79688 -232.60925q-57.640625 -133.5 -57.640625 -293.28125q0 -159.79688 57.640625 -293.28125q57.640625 -133.5 161.8125 -232.60938q104.171875 -99.125 243.73438 -152.71875q139.5625 -53.59381 305.42188 -53.59381q184.04688 0 332.71875 63.71881q148.67188 63.703125 249.79688 187.07812l-210.35938 194.1875q-72.8125 -82.9375 -161.8125 -124.390625q-88.984375 -41.46875 -194.17188 -41.46875q-99.109375 0 -182.04688 32.359375q-82.921875 32.359375 -143.60938 93.046875q-60.671875 60.671875 -94.046875 143.60938q-33.375 82.921875 -33.375 184.0625q0 101.125 33.375 184.0625q33.375 82.921875 94.046875 143.60925q60.6875 60.671875 143.60938 93.03125q82.9375 32.359375 182.04688 32.359375q105.1875 0 194.17188 -41.453125q89.0 -41.46875 161.8125 -126.42175l210.35938 194.17175q-101.125 123.390625 -249.79688 188.10938q-148.67188 64.71875 -334.75 64.71875z" fill-rule="nonzero"/><path fill="#000000" d="m7762.2524 758.8271l1029.7954 -1029.9213l0.041992188 686.5653l-343.27246 343.31393l343.31445 343.2719l0.041992188 686.5654z" fill-rule="evenodd"/><path fill="#000000" d="m11858.248 758.8271l-1029.7949 -1029.9213l-0.041992188 686.5653l343.27246 343.31393l-343.31445 343.2719l-0.041992188 686.5654z" fill-rule="evenodd"/><path fill="#f1c232" d="m0 192.55296l0 0c0 -106.34406 86.2089 -192.55296 192.55296 -192.55296l3710.894 0c51.06836 0 100.04492 20.286772 136.15552 56.397457c36.110596 36.110683 56.39746 85.08728 56.39746 136.1555l0 3711.209c0 106.343994 -86.208984 192.55298 -192.55298 192.55298l-3710.894 0c-106.34406 0 -192.55296 -86.208984 -192.55296 -192.55298z" fill-rule="evenodd"/><path fill="#f1c232" d="m1448.0149 2243.995l0 0c-331.37317 -331.37317 -331.37317 -868.63513 0 -1200.0082c331.37305 -331.3731 868.635 -331.3731 1200.008 0l-300.00195 300.00208c-165.68652 -165.68665 -434.3175 -165.68665 -600.004 0c-165.68665 165.68652 -165.68665 434.3175 0 600.004z" fill-rule="evenodd"/><path stroke="#ffffff" stroke-width="24.0" stroke-linejoin="round" stroke-linecap="butt" d="m1448.0149 2243.995l0 0c-331.37317 -331.37317 -331.37317 -868.63513 0 -1200.0082c331.37305 -331.3731 868.635 -331.3731 1200.008 0l-300.00195 300.00208c-165.68652 -165.68665 -434.3175 -165.68665 -600.004 0c-165.68665 165.68652 -165.68665 434.3175 0 600.004z" fill-rule="evenodd"/><path fill="#f1c232" d="m2648.023 2243.995l0 0c-331.37305 331.37305 -868.635 331.37305 -1200.008 0c-331.37317 -331.37317 -331.37317 -868.63513 0 -1200.0082l300.00208 300.00208c-165.68665 165.68652 -165.68665 434.3175 0 600.004c165.68652 165.68665 434.3175 165.68665 600.004 0z" fill-rule="evenodd"/><path stroke="#ffffff" stroke-width="24.0" stroke-linejoin="round" stroke-linecap="butt" d="m2648.023 2243.995l0 0c-331.37305 331.37305 -868.635 331.37305 -1200.008 0c-331.37317 -331.37317 -331.37317 -868.63513 0 -1200.0082l300.00208 300.00208c-165.68665 165.68652 -165.68665 434.3175 0 600.004c165.68652 165.68665 434.3175 165.68665 600.004 0z" fill-rule="evenodd"/><path fill="#6aa84f" d="m7824.886 3535.816c-5.0717773 6.142578 -11.002441 11.395508 -16.933105 16.669434c-33.04883 30.712158 -71.16943 44.755127 -114.381836 43.88672l-137.2666 -0.88964844l137.2666 0.88964844c43.212402 0.8684082 81.33301 -13.174561 114.381836 -43.88672c5.930664 -5.273926 11.861328 -10.526855 16.933105 -16.669434l-234.69434 386.1057c-5.9311523 9.658447 -15.256348 19.316895 -26.259277 28.975342c-23.723145 19.295654 -50.00244 28.064697 -77.958984 28.064697l-197.4126 -2.6264648l-2.5561523 158.8352l-194.87695 -350.14062l195.73584 -374.7102l-4.2539062 182.53638l273.69482 2.6264648l-214.3667 -385.23706l343.146 -205.34839l174.54834 315.04395c6.7695312 14.911377 11.861816 30.712158 14.397461 46.513184c9.325684 50.89746 0 98.27905 -28.794922 140.40771c-4.23291 8.768799 -11.022949 17.537842 -18.650879 27.19629c-0.8383789 0.8684082 -0.8383789 1.7578125 -1.6977539 1.7578125zm-1104.022 -988.1072c37.28174 -35.11792 81.33301 -50.897705 131.33545 -47.402832l31.331055 5.27417l443.98926 5.2526855l37.282227 8.790039c27.976562 10.526855 49.143555 28.954346 62.702637 53.52417l100.822754 177.2622l133.0332 -79.85156l-188.9458 352.76685l-410.94092 21.05371l153.36133 -90.37866l-138.10498 -243.96094l-209.29492 389.64282l-347.3789 -198.3374l170.29443 -317.67017c8.466797 -13.15332 19.489746 -25.438232 30.513184 -35.965088zm-156.75635 1033.7307l427.89453 0l0.8383789 410.69653l-332.98193 0c-19.489746 0.8684082 -40.676758 -2.6264648 -64.3999 -11.416504c-46.60742 -17.537598 -81.333496 -49.139404 -102.52051 -95.65259c-5.092285 -8.768799 -9.325684 -19.295654 -12.720215 -29.82251c-2.5361328 -8.790283 -5.0717773 -16.669434 -6.7695312 -26.32788c-8.466797 -44.755127 -1.6972656 -85.99414 20.328125 -122.87012l70.331055 -124.60693l-70.331055 124.60693c-22.02539 36.875977 -28.794922 78.11499 -20.328125 122.87012c1.6977539 9.658447 4.2333984 17.537598 6.7695312 26.32788l-208.43604 -407.18066c-5.0717773 -9.658447 -8.466797 -22.811768 -11.002441 -37.74414c-4.2539062 -29.822754 0.8383789 -57.908447 15.23584 -82.47827l101.68213 -176.39404l-133.0332 -81.60962l390.6123 0l216.06396 361.5569l-150.8252 -94.784424zm319.42285 -1075.8594l24.582031 4.3842773c41.515137 14.042969 72.8667 40.37085 94.05371 78.9834l74.563965 121.09082l-74.563965 -121.09082c-21.187012 -38.61255 -52.538574 -64.94043 -94.05371 -78.9834z" fill-rule="evenodd"/><path stroke="#ffffff" stroke-width="24.0" stroke-linejoin="round" stroke-linecap="butt" d="m7824.886 3535.816c-5.0717773 6.142578 -11.002441 11.395508 -16.933105 16.669434c-33.04883 30.712158 -71.16943 44.755127 -114.381836 43.88672l-137.2666 -0.88964844l137.2666 0.88964844c43.212402 0.8684082 81.33301 -13.174561 114.381836 -43.88672c5.930664 -5.273926 11.861328 -10.526855 16.933105 -16.669434l-234.69434 386.1057c-5.9311523 9.658447 -15.256348 19.316895 -26.259277 28.975342c-23.723145 19.295654 -50.00244 28.064697 -77.958984 28.064697l-197.4126 -2.6264648l-2.5561523 158.8352l-194.87695 -350.14062l195.73584 -374.7102l-4.2539062 182.53638l273.69482 2.6264648l-214.3667 -385.23706l343.146 -205.34839l174.54834 315.04395c6.7695312 14.911377 11.861816 30.712158 14.397461 46.513184c9.325684 50.89746 0 98.27905 -28.794922 140.40771c-4.23291 8.768799 -11.022949 17.537842 -18.650879 27.19629c-0.8383789 0.8684082 -0.8383789 1.7578125 -1.6977539 1.7578125zm-1104.022 -988.1072c37.28174 -35.11792 81.33301 -50.897705 131.33545 -47.402832l31.331055 5.27417l443.98926 5.2526855l37.282227 8.790039c27.976562 10.526855 49.143555 28.954346 62.702637 53.52417l100.822754 177.2622l133.0332 -79.85156l-188.9458 352.76685l-410.94092 21.05371l153.36133 -90.37866l-138.10498 -243.96094l-209.29492 389.64282l-347.3789 -198.3374l170.29443 -317.67017c8.466797 -13.15332 19.489746 -25.438232 30.513184 -35.965088zm-156.75635 1033.7307l427.89453 0l0.8383789 410.69653l-332.98193 0c-19.489746 0.8684082 -40.676758 -2.6264648 -64.3999 -11.416504c-46.60742 -17.537598 -81.333496 -49.139404 -102.52051 -95.65259c-5.092285 -8.768799 -9.325684 -19.295654 -12.720215 -29.82251c-2.5361328 -8.790283 -5.0717773 -16.669434 -6.7695312 -26.32788c-8.466797 -44.755127 -1.6972656 -85.99414 20.328125 -122.87012l70.331055 -124.60693l-70.331055 124.60693c-22.02539 36.875977 -28.794922 78.11499 -20.328125 122.87012c1.6977539 9.658447 4.2333984 17.537598 6.7695312 26.32788l-208.43604 -407.18066c-5.0717773 -9.658447 -8.466797 -22.811768 -11.002441 -37.74414c-4.2539062 -29.822754 0.8383789 -57.908447 15.23584 -82.47827l101.68213 -176.39404l-133.0332 -81.60962l390.6123 0l216.06396 361.5569l-150.8252 -94.784424zm319.42285 -1075.8594l24.582031 4.3842773c41.515137 14.042969 72.8667 40.37085 94.05371 78.9834l74.563965 121.09082l-74.563965 -121.09082c-21.187012 -38.61255 -52.538574 -64.94043 -94.05371 -78.9834z" fill-rule="evenodd"/><path fill="#000000" fill-opacity="0.0" d="m7556.3047 3595.4824l-214.3667 -385.23706l343.146 -205.34839l174.54834 315.04395c6.7695312 14.911377 11.861816 30.712158 14.397461 46.513184c9.325684 50.89746 0 98.27905 -28.794922 140.40771c-4.23291 8.768799 -11.022949 17.537842 -18.650879 27.19629c-0.8383789 0.8684082 -0.8383789 1.7578125 -1.6977539 1.7578125l-234.69434 386.1057c-5.9311523 9.658447 -15.256348 19.316895 -26.259277 28.975342c-23.723145 19.295654 -50.00244 28.064697 -77.958984 28.064697l-197.4126 -2.6264648l-2.5561523 158.8352l-194.87695 -350.14062l195.73584 -374.7102l-4.2539062 182.53638zm268.58154 -59.666504c-5.0717773 6.142578 -11.002441 11.395508 -16.933105 16.669434c-33.04883 30.712158 -71.16943 44.755127 -114.381836 43.88672l-137.2666 -0.88964844m-835.4404 -1047.7737c37.28174 -35.11792 81.33301 -50.897705 131.33545 -47.402832l31.331055 5.27417l443.98926 5.2526855l37.282227 8.790039c27.976562 10.526855 49.143555 28.954346 62.702637 53.52417l100.822754 177.2622l133.0332 -79.85156l-188.9458 352.76685l-410.94092 21.05371l153.36133 -90.37866l-138.10498 -243.96094l-209.29492 389.64282l-347.3789 -198.3374l170.29443 -317.67017c8.466797 -13.15332 19.489746 -25.438232 30.513184 -35.965088zm-156.75635 1033.7307l136.40771 -244.82935l150.8252 94.784424l-216.06396 -361.5569l-390.6123 0l133.0332 81.60962l-101.68213 176.39404c-14.397461 24.569824 -19.489746 52.655518 -15.23584 82.47827c2.5356445 14.932373 5.930664 28.085693 11.002441 37.74414l208.43604 407.18066c-2.5361328 -8.790283 -5.0717773 -16.669434 -6.7695312 -26.32788c-8.466797 -44.755127 -1.6972656 -85.99414 20.328125 -122.87012l70.331055 -124.60693l427.89453 0l0.8383789 410.69653l-332.98193 0c-19.489746 0.8684082 -40.676758 -2.6264648 -64.3999 -11.416504c-46.60742 -17.537598 -81.333496 -49.139404 -102.52051 -95.65259c-5.092285 -8.768799 -9.325684 -19.295654 -12.720215 -29.82251m403.3125 -1349.6643l24.582031 4.3842773c41.515137 14.042969 72.8667 40.37085 94.05371 78.9834l74.563965 121.09082" fill-rule="evenodd"/><path stroke="#ffffff" stroke-width="24.0" stroke-miterlimit="41.4311" stroke-linecap="butt" d="m7556.3047 3595.4824l-214.3667 -385.23706l343.146 -205.34839l174.54834 315.04395c6.7695312 14.911377 11.861816 30.712158 14.397461 46.513184c9.325684 50.89746 0 98.27905 -28.794922 140.40771c-4.23291 8.768799 -11.022949 17.537842 -18.650879 27.19629c-0.8383789 0.8684082 -0.8383789 1.7578125 -1.6977539 1.7578125l-234.69434 386.1057c-5.9311523 9.658447 -15.256348 19.316895 -26.259277 28.975342c-23.723145 19.295654 -50.00244 28.064697 -77.958984 28.064697l-197.4126 -2.6264648l-2.5561523 158.8352l-194.87695 -350.14062l195.73584 -374.7102l-4.2539062 182.53638zm268.58154 -59.666504c-5.0717773 6.142578 -11.002441 11.395508 -16.933105 16.669434c-33.04883 30.712158 -71.16943 44.755127 -114.381836 43.88672l-137.2666 -0.88964844m-835.4404 -1047.7737c37.28174 -35.11792 81.33301 -50.897705 131.33545 -47.402832l31.331055 5.27417l443.98926 5.2526855l37.282227 8.790039c27.976562 10.526855 49.143555 28.954346 62.702637 53.52417l100.822754 177.2622l133.0332 -79.85156l-188.9458 352.76685l-410.94092 21.05371l153.36133 -90.37866l-138.10498 -243.96094l-209.29492 389.64282l-347.3789 -198.3374l170.29443 -317.67017c8.466797 -13.15332 19.489746 -25.438232 30.513184 -35.965088zm-156.75635 1033.7307l136.40771 -244.82935l150.8252 94.784424l-216.06396 -361.5569l-390.6123 0l133.0332 81.60962l-101.68213 176.39404c-14.397461 24.569824 -19.489746 52.655518 -15.23584 82.47827c2.5356445 14.932373 5.930664 28.085693 11.002441 37.74414l208.43604 407.18066c-2.5361328 -8.790283 -5.0717773 -16.669434 -6.7695312 -26.32788c-8.466797 -44.755127 -1.6972656 -85.99414 20.328125 -122.87012l70.331055 -124.60693l427.89453 0l0.8383789 410.69653l-332.98193 0c-19.489746 0.8684082 -40.676758 -2.6264648 -64.3999 -11.416504c-46.60742 -17.537598 -81.333496 -49.139404 -102.52051 -95.65259c-5.092285 -8.768799 -9.325684 -19.295654 -12.720215 -29.82251m403.3125 -1349.6643l24.582031 4.3842773c41.515137 14.042969 72.8667 40.37085 94.05371 78.9834l74.563965 121.09082" fill-rule="evenodd"/><path fill="#000000" fill-opacity="0.0" d="m752.0079 2755.084l2592.0 0l0 646.3938l-2592.0 0z" fill-rule="evenodd"/><path fill="#ffffff" d="m1731.2158 3278.806q-32.53125 0 -56.53125 -13.328125q-24.0 -13.328125 -37.34375 -37.328125q-13.328125 -24.0 -13.328125 -56.0l0 -186.67188q0 -32.53125 13.328125 -56.53125q13.34375 -24.0 37.34375 -37.0625q24.0 -13.0625 56.53125 -13.0625q33.0625 0 57.59375 13.859375q24.53125 13.859375 37.859375 38.9375q13.34375 25.0625 13.34375 59.203125l-26.671875 0q0 -41.078125 -22.140625 -64.53125q-22.125 -23.46875 -59.984375 -23.46875q-37.34375 0 -58.9375 22.140625q-21.59375 22.125 -21.59375 60.515625l0 186.67188q0 38.390625 21.59375 60.53125q21.59375 22.125 58.9375 22.125q38.390625 0 60.25 -23.71875q21.875 -23.734375 21.875 -64.28125l26.671875 0q0 34.140625 -13.34375 59.203125q-13.328125 25.0625 -37.859375 38.9375q-24.53125 13.859375 -57.59375 13.859375zm319.99683 0q-32.53125 0 -56.53125 -13.328125q-24.0 -13.328125 -37.34375 -37.328125q-13.328125 -24.0 -13.328125 -56.0l0 -186.67188q0 -32.53125 13.328125 -56.53125q13.34375 -24.0 37.34375 -37.0625q24.0 -13.0625 56.53125 -13.0625q33.0625 0 57.59375 13.859375q24.53125 13.859375 37.859375 38.9375q13.34375 25.0625 13.34375 59.203125l-26.671875 0q0 -41.078125 -22.140625 -64.53125q-22.125 -23.46875 -59.984375 -23.46875q-37.34375 0 -58.9375 22.140625q-21.59375 22.125 -21.59375 60.515625l0 186.67188q0 38.390625 21.59375 60.53125q21.59375 22.125 58.9375 22.125q38.390625 0 60.25 -23.71875q21.875 -23.734375 21.875 -64.28125l26.671875 0q0 34.140625 -13.34375 59.203125q-13.328125 25.0625 -37.859375 38.9375q-24.53125 13.859375 -57.59375 13.859375zm193.05933 -5.328125l107.203125 -389.32812l33.0625 0l107.203125 389.32812l-27.734375 0l-29.875 -112.0l-133.32812 0l-29.859375 112.0l-26.671875 0zm62.9375 -136.0l120.53125 0l-42.140625 -157.32812q-7.46875 -28.796875 -12.0 -48.265625q-4.53125 -19.46875 -5.59375 -25.34375q-1.0625 5.875 -5.875 25.34375q-4.796875 19.46875 -12.265625 48.265625l-42.65625 157.32812z" fill-rule="nonzero"/><path fill="#000000" fill-opacity="0.0" d="m3193.0835 -2831.635l5780.3774 0l0 2165.0708l-5780.3774 0z" fill-rule="evenodd"/><path fill="#ffffff" d="m5638.026 -1550.6589q-39.90625 0 -71.34375 -18.3125q-31.4375 -18.3125 -49.75 -51.109375q-18.3125 -32.796875 -18.3125 -74.34375q0 -42.09375 18.3125 -74.34375q18.3125 -32.265625 49.75 -50.84375q31.4375 -18.59375 71.34375 -18.59375q39.90625 0 71.609375 18.59375q31.703125 18.578125 49.734375 50.84375q18.046875 32.25 18.046875 74.34375q0 41.546875 -18.046875 74.34375q-18.03125 32.796875 -49.734375 51.109375q-31.703125 18.3125 -71.609375 18.3125zm0 -16.40625q34.984375 0 62.578125 -16.125q27.609375 -16.125 43.1875 -45.09375q15.59375 -28.96875 15.59375 -66.140625q0 -37.71875 -15.59375 -66.421875q-15.578125 -28.703125 -43.1875 -44.546875q-27.59375 -15.859375 -62.578125 -15.859375q-34.4375 0 -61.78125 15.859375q-27.328125 15.84375 -43.453125 44.546875q-16.125 28.703125 -16.125 66.421875q0 37.171875 16.125 66.140625q16.125 28.96875 43.453125 45.09375q27.34375 16.125 61.78125 16.125zm228.49072 14.765625l0 -283.71875l17.5 0l0 78.171875l-1.640625 -4.921875q11.484375 -35.53125 40.171875 -55.484375q28.703125 -19.953125 71.890625 -19.953125l0 18.046875q-1.09375 0 -2.46875 0q-1.359375 0 -2.453125 0q-49.1875 0 -77.078125 31.15625q-27.875 31.15625 -27.875 85.828125l0 150.875l-18.046875 0zm347.13574 1.640625q-38.265625 0 -68.890625 -17.765625q-30.609375 -17.765625 -48.375 -50.28125q-17.765625 -32.53125 -17.765625 -75.171875q0 -43.1875 17.765625 -75.71875q17.765625 -32.53125 48.375 -50.5625q30.625 -18.046875 68.890625 -18.046875q39.359375 0 70.78125 18.59375q31.4375 18.578125 49.75 50.84375q18.3125 32.25 18.3125 74.890625q0 42.09375 -18.3125 74.34375q-18.3125 32.25 -49.75 50.5625q-31.421875 18.3125 -70.78125 18.3125zm-139.95312 104.40625l0 -389.76562l17.5 0l0 99.5l-4.921875 43.1875l5.46875 43.1875l0 203.89062l-18.046875 0zm139.40625 -120.8125q34.4375 0 62.046875 -15.84375q27.609375 -15.859375 43.453125 -44.828125q15.859375 -28.96875 15.859375 -66.140625q0 -38.265625 -15.859375 -66.6875q-15.84375 -28.4375 -43.453125 -44.5625q-27.609375 -16.125 -62.046875 -16.125q-34.984375 0 -62.328125 16.125q-27.328125 16.125 -43.1875 44.5625q-15.84375 28.421875 -15.84375 66.6875q0 37.171875 15.84375 66.140625q15.859375 28.96875 43.1875 44.828125q27.34375 15.84375 62.328125 15.84375zm408.35254 14.765625l0 -66.140625l-0.546875 -9.84375l0 -107.6875q0 -42.09375 -22.421875 -63.953125q-22.40625 -21.875 -65.046875 -21.875q-31.15625 0 -56.859375 10.65625q-25.6875 10.65625 -44.265625 27.609375l-9.84375 -13.125q20.21875 -19.125 49.734375 -30.328125q29.53125 -11.21875 61.78125 -11.21875q50.84375 0 77.890625 25.96875q27.0625 25.96875 27.0625 76.265625l0 183.67188l-17.484375 0zm-105.5 1.640625q-32.265625 0 -54.953125 -9.84375q-22.671875 -9.84375 -34.703125 -28.15625q-12.03125 -18.3125 -12.03125 -41.8125q0 -20.765625 9.84375 -38.53125q9.84375 -17.78125 32.515625 -28.4375q22.6875 -10.65625 60.953125 -10.65625l109.890625 0l0 14.765625l-109.890625 0q-46.453125 0 -65.859375 17.5q-19.40625 17.484375 -19.40625 44.265625q0 30.0625 22.40625 47.828125q22.421875 17.765625 62.3125 17.765625q39.359375 0 65.046875 -17.765625q25.703125 -17.765625 38.828125 -50.5625l6.015625 12.03125q-10.9375 32.25 -39.375 51.9375q-28.421875 19.671875 -71.59375 19.671875z" fill-rule="nonzero"/></g></svg>