<svg id="visual" viewBox="0 0 900 600" width="900" height="600" xmlns="http://www.w3.org/2000/svg" xmlns:xlink="http://www.w3.org/1999/xlink" version="1.1"><path d="M0 175L13.7 185C27.3 195 54.7 215 82 211C109.3 207 136.7 179 163.8 155C191 131 218 111 245.2 127C272.3 143 299.7 195 327 209C354.3 223 381.7 199 409 191C436.3 183 463.7 191 491 182C518.3 173 545.7 147 573 135C600.3 123 627.7 125 654.8 123C682 121 709 115 736.2 131C763.3 147 790.7 185 818 183C845.3 181 872.7 139 886.3 118L900 97L900 0L886.3 0C872.7 0 845.3 0 818 0C790.7 0 763.3 0 736.2 0C709 0 682 0 654.8 0C627.7 0 600.3 0 573 0C545.7 0 518.3 0 491 0C463.7 0 436.3 0 409 0C381.7 0 354.3 0 327 0C299.7 0 272.3 0 245.2 0C218 0 191 0 163.8 0C136.7 0 109.3 0 82 0C54.7 0 27.3 0 13.7 0L0 0Z" fill="#9ac480"></path><path d="M0 301L13.7 307C27.3 313 54.7 325 82 343C109.3 361 136.7 385 163.8 375C191 365 218 321 245.2 315C272.3 309 299.7 341 327 357C354.3 373 381.7 373 409 364C436.3 355 463.7 337 491 335C518.3 333 545.7 347 573 357C600.3 367 627.7 373 654.8 370C682 367 709 355 736.2 344C763.3 333 790.7 323 818 326C845.3 329 872.7 345 886.3 353L900 361L900 95L886.3 116C872.7 137 845.3 179 818 181C790.7 183 763.3 145 736.2 129C709 113 682 119 654.8 121C627.7 123 600.3 121 573 133C545.7 145 518.3 171 491 180C463.7 189 436.3 181 409 189C381.7 197 354.3 221 327 207C299.7 193 272.3 141 245.2 125C218 109 191 129 163.8 153C136.7 177 109.3 205 82 209C54.7 213 27.3 193 13.7 183L0 173Z" fill="#85b866"></path><path d="M0 379L13.7 383C27.3 387 54.7 395 82 414C109.3 433 136.7 463 163.8 457C191 451 218 409 245.2 401C272.3 393 299.7 419 327 433C354.3 447 381.7 449 409 442C436.3 435 463.7 419 491 413C518.3 407 545.7 411 573 417C600.3 423 627.7 431 654.8 429C682 427 709 415 736.2 403C763.3 391 790.7 379 818 385C845.3 391 872.7 415 886.3 427L900 439L900 359L886.3 351C872.7 343 845.3 327 818 324C790.7 321 763.3 331 736.2 342C709 353 682 365 654.8 368C627.7 371 600.3 365 573 355C545.7 345 518.3 331 491 333C463.7 335 436.3 353 409 362C381.7 371 354.3 371 327 355C299.7 339 272.3 307 245.2 313C218 319 191 363 163.8 373C136.7 383 109.3 359 82 341C54.7 323 27.3 311 13.7 305L0 299Z" fill="#70ac4c"></path><path d="M0 457L13.7 468C27.3 479 54.7 501 82 514C109.3 527 136.7 531 163.8 522C191 513 218 491 245.2 486C272.3 481 299.7 493 327 499C354.3 505 381.7 505 409 503C436.3 501 463.7 497 491 495C518.3 493 545.7 493 573 494C600.3 495 627.7 497 654.8 501C682 505 709 511 736.2 503C763.3 495 790.7 473 818 475C845.3 477 872.7 503 886.3 516L900 529L900 437L886.3 425C872.7 413 845.3 389 818 383C790.7 377 763.3 389 736.2 401C709 413 682 425 654.8 427C627.7 429 600.3 421 573 415C545.7 409 518.3 405 491 411C463.7 417 436.3 433 409 440C381.7 447 354.3 445 327 431C299.7 417 272.3 391 245.2 399C218 407 191 449 163.8 455C136.7 461 109.3 431 82 412C54.7 393 27.3 385 13.7 381L0 377Z" fill="#619542"></path><path d="M0 601L13.7 601C27.3 601 54.7 601 82 601C109.3 601 136.7 601 163.8 601C191 601 218 601 245.2 601C272.3 601 299.7 601 327 601C354.3 601 381.7 601 409 601C436.3 601 463.7 601 491 601C518.3 601 545.7 601 573 601C600.3 601 627.7 601 654.8 601C682 601 709 601 736.2 601C763.3 601 790.7 601 818 601C845.3 601 872.7 601 886.3 601L900 601L900 527L886.3 514C872.7 501 845.3 475 818 473C790.7 471 763.3 493 736.2 501C709 509 682 503 654.8 499C627.7 495 600.3 493 573 492C545.7 491 518.3 491 491 493C463.7 495 436.3 499 409 501C381.7 503 354.3 503 327 497C299.7 491 272.3 479 245.2 484C218 489 191 511 163.8 520C136.7 529 109.3 525 82 512C54.7 499 27.3 477 13.7 466L0 455Z" fill="#527e38"></path></svg>